<?xml version="1.0" encoding="iso-8859-1"?>
<!-- Generator: Adobe Illustrator 16.0.0, SVG Export Plug-In . SVG Version: 6.00 Build 0)  -->
<!DOCTYPE svg PUBLIC "-//W3C//DTD SVG 1.1//EN" "http://www.w3.org/Graphics/SVG/1.1/DTD/svg11.dtd">
<svg version="1.1" id="Capa_1" xmlns="http://www.w3.org/2000/svg" xmlns:xlink="http://www.w3.org/1999/xlink" x="0px" y="0px"
	 width="23.982px" height="23.982px" viewBox="0 0 23.982 23.982" style="enable-background:new 0 0 23.982 23.982;"
	 xml:space="preserve">
<g>
	<path d="M15.29,0.658l7.984,7.996l-1.981,1.979l-3.274-3.279L7.333,18.04l3.279,3.272l-1.979,1.983l-7.996-7.985l1.979-1.979
		l3.373,3.366L16.677,6.01l-3.369-3.373L15.29,0.658z M23.981,5.307l-1.979-1.981l1.354-1.354l-1.344-1.344l-1.354,1.353L18.681,0
		l-1.345,1.343l5.299,5.307L23.981,5.307z M0.001,18.682l1.979,1.978l-1.282,1.282l1.344,1.345l1.284-1.283l1.981,1.979l1.343-1.344
		l-5.308-5.302L0.001,18.682z"/>
</g>
<g>
</g>
<g>
</g>
<g>
</g>
<g>
</g>
<g>
</g>
<g>
</g>
<g>
</g>
<g>
</g>
<g>
</g>
<g>
</g>
<g>
</g>
<g>
</g>
<g>
</g>
<g>
</g>
<g>
</g>
</svg>
