<?xml version="1.0" encoding="iso-8859-1"?>
<!-- Generator: Adobe Illustrator 18.1.1, SVG Export Plug-In . SVG Version: 6.00 Build 0)  -->
<svg version="1.1" id="Capa_1" xmlns="http://www.w3.org/2000/svg" xmlns:xlink="http://www.w3.org/1999/xlink" x="0px" y="0px"
	 viewBox="0 0 44.716 44.716" style="enable-background:new 0 0 44.716 44.716;" xml:space="preserve">
<g>
	<path style="fill:#030104;" d="M42.144,16.712c-0.36-0.51-0.391-1.05-0.34-1.65c0.1-1.48,0.229-2.96,0.199-4.44
		c-0.039-2.26-0.949-4.17-2.68-5.64c-1.38-1.18-2.99-1.96-4.77-2.22c-1.61-0.24-3.051-0.68-4.35-1.73
		c-0.961-0.78-2.16-1.06-3.461-1.03c-2.84,0.06-5.689,0.05-8.539,0c-1.141-0.02-2.16,0.29-3.121,0.83
		c-0.709,0.41-1.359,0.91-2.06,1.34c-0.22,0.13-0.49,0.24-0.74,0.26c-1.46,0.11-2.87,0.43-4.21,1c-2.63,1.12-4.54,2.92-5.13,5.81
		c-0.39,1.94-0.17,3.91-0.01,5.87c0.04,0.46,0,1.04-0.25,1.4c-1.45,2.14-1.91,4.53-1.97,7.04c-0.01,0.45,0.14,0.67,0.51,0.89
		c1.5,0.87,2.99,1.77,4.48,2.67c0.629,0.37,0.629,0.38,1.049-0.21c0.761-1.07,1.101-2.3,1.351-3.56
		c0.093-0.479,0.169-0.96,0.244-1.458c0.12-0.807,0.235-1.4,0.265-1.324c0.024,0.065,0.041,0.103,0.041,0.142
		c0.25,2.66,1.051,5.17,2,7.64c0.561,1.44,0.76,2.93,0.551,4.47c-0.181,1.27-0.281,2.54-0.44,3.81
		c-0.035,0.299-0.024,0.581,0.014,0.854c-0.003,0.068-0.017,0.134-0.017,0.202c0,3.887,5.192,7.038,11.596,7.038
		s11.596-3.151,11.596-7.038c0-0.086-0.017-0.17-0.021-0.255c0.032-0.257,0.036-0.523,0.003-0.801c-0.101-0.8-0.15-1.6-0.261-2.39
		c-0.209-1.56-0.459-3.13,0-4.67c0.33-1.13,0.82-2.21,1.131-3.34c0.331-1.196,0.625-2.396,0.916-3.597
		c0.26-1.074,0.474-1.976,0.468-2.018c-0.007-0.042-0.003-0.064,0.011-0.05s0.019,0.047,0.011,0.075s-0.002,0.125,0.015,0.219
		c0.01,0.056,0.02,0.112,0.029,0.171c0.15,0.94,0.261,1.89,0.461,2.82c0.25,1.15,0.609,2.28,1.359,3.22
		c0.18,0.22,0.33,0.42,0.67,0.21c1.66-1.01,3.34-1.99,5-3.01c0.131-0.08,0.26-0.28,0.26-0.43
		C43.964,21.312,43.625,18.861,42.144,16.712z M22.322,14.559c-0.045,0.078-0.1,0.169-0.164,0.274
		c-0.104,0.178-0.244,0.385-0.439,0.591c-0.185,0.218-0.396,0.47-0.677,0.686c-0.069,0.059-0.141,0.119-0.213,0.18
		c-0.117,0.1-0.326,0.253-0.465,0.343c-0.082,0.054-0.165,0.108-0.25,0.163c-0.176,0.121-0.367,0.221-0.568,0.315
		c-0.326,0.153-0.892,0.373-1.262,0.485c-0.222,0.066-0.448,0.124-0.683,0.156c-0.235,0.055-0.476,0.083-0.718,0.103
		c-0.4,0.031-1.052,0.031-1.452-0.001c-0.242-0.02-0.482-0.049-0.718-0.104c-0.234-0.033-0.461-0.09-0.683-0.157
		c-0.37-0.111-0.935-0.332-1.261-0.485c-0.201-0.095-0.393-0.195-0.568-0.315c-0.355-0.207-0.663-0.444-0.927-0.686
		c-0.277-0.213-0.499-0.471-0.687-0.692c-0.201-0.211-0.334-0.413-0.434-0.585c-0.063-0.104-0.117-0.196-0.162-0.273
		c-0.087-0.152-0.021-0.225,0.14-0.154c0.081,0.037,0.178,0.081,0.288,0.133c0.369,0.193,0.854,0.374,1.443,0.591
		c0.291,0.114,0.613,0.207,0.952,0.297c0.166,0.059,0.343,0.099,0.522,0.137c0.293,0.061,0.78,0.156,1.091,0.206
		c0.187,0.03,0.374,0.057,0.566,0.067c0.382,0.051,0.772,0.045,1.162,0.064c0.389-0.019,0.779-0.015,1.161-0.065
		c0.191-0.011,0.38-0.038,0.565-0.067c0.311-0.049,0.798-0.145,1.091-0.206c0.18-0.038,0.356-0.078,0.522-0.137
		c0.338-0.09,0.66-0.184,0.952-0.297c0.586-0.214,1.1-0.419,1.446-0.592c0.109-0.051,0.206-0.095,0.288-0.131
		C22.343,14.332,22.41,14.406,22.322,14.559z M34.957,14.559c-0.045,0.078-0.1,0.169-0.164,0.274
		c-0.104,0.178-0.244,0.385-0.439,0.591c-0.185,0.219-0.396,0.471-0.677,0.686c-0.069,0.059-0.141,0.119-0.213,0.18
		c-0.117,0.1-0.326,0.253-0.465,0.343c-0.082,0.054-0.165,0.108-0.25,0.163c-0.176,0.121-0.368,0.221-0.569,0.315
		c-0.325,0.153-0.891,0.373-1.261,0.485c-0.222,0.066-0.448,0.124-0.683,0.156c-0.235,0.055-0.476,0.083-0.719,0.103
		c-0.399,0.031-1.052,0.031-1.451-0.001c-0.243-0.02-0.483-0.049-0.719-0.104c-0.233-0.033-0.461-0.09-0.682-0.157
		c-0.371-0.111-0.936-0.332-1.261-0.485c-0.201-0.095-0.393-0.195-0.568-0.315c-0.356-0.208-0.664-0.444-0.928-0.686
		c-0.277-0.213-0.498-0.472-0.687-0.692c-0.201-0.211-0.334-0.414-0.434-0.585c-0.063-0.104-0.117-0.196-0.162-0.273
		c-0.087-0.152-0.021-0.225,0.14-0.154c0.081,0.037,0.178,0.081,0.288,0.133c0.369,0.193,0.854,0.374,1.443,0.591
		c0.291,0.114,0.614,0.207,0.952,0.297c0.166,0.059,0.343,0.099,0.523,0.137c0.292,0.061,0.78,0.156,1.091,0.206
		c0.187,0.03,0.374,0.057,0.565,0.067c0.382,0.051,0.773,0.045,1.162,0.064c0.39-0.019,0.78-0.015,1.162-0.065
		c0.191-0.011,0.379-0.038,0.565-0.067c0.311-0.049,0.798-0.145,1.091-0.206c0.18-0.038,0.356-0.078,0.522-0.137
		c0.338-0.09,0.66-0.184,0.952-0.297c0.586-0.214,1.1-0.419,1.446-0.592c0.109-0.051,0.206-0.095,0.288-0.131
		C34.978,14.332,35.045,14.406,34.957,14.559z"/>
</g>
<g>
</g>
<g>
</g>
<g>
</g>
<g>
</g>
<g>
</g>
<g>
</g>
<g>
</g>
<g>
</g>
<g>
</g>
<g>
</g>
<g>
</g>
<g>
</g>
<g>
</g>
<g>
</g>
<g>
</g>
</svg>
