<?xml version="1.0" encoding="iso-8859-1"?>
<!-- Generator: Adobe Illustrator 18.1.1, SVG Export Plug-In . SVG Version: 6.00 Build 0)  -->
<svg version="1.1" id="Capa_1" xmlns="http://www.w3.org/2000/svg" xmlns:xlink="http://www.w3.org/1999/xlink" x="0px" y="0px"
	 viewBox="0 0 57.206 57.206" style="enable-background:new 0 0 57.206 57.206;" xml:space="preserve">
<g>
	<path style="fill:#010002;" d="M20.513,1.871c0.358-0.359,2.222,0.492,2.222,0.492S21.114,1.513,21.385,0
		c3.303,2.632,4.896,2.363,4.896,2.363h1.483c2.397,0,2.387,1.943,2.387,4.34V7.79h-0.326l-1.053-2.998h-6.349L21.731,7.79h-0.517
		C21.214,7.79,21.322,3.247,20.513,1.871z M40.114,0.188c-3.206-0.622-4.572,4.284-1.354,4.909c1.186,0.229,2.035,1.066,2.717,2.034
		c0.443,0.631,1.552,2.494,0.83,3.269c-0.516,0.551-2.979,0.28-3.669,0.271c-1.303-0.016-2.602-0.128-3.903-0.164
		c-0.63-0.302-1.358-0.491-2.153-0.491c-0.949,0-1.823,0.251-2.522,0.669c-1.519-0.427-3.207-0.669-4.932-0.669
		c-1.802,0-4.972,0.758-4.972,0.758s-0.346-0.625-2.669-0.758c-1.289,0.213-2.044,0.88-2.479,1.706
		c-5.279,2.619-5.662,9.521-5.21,15.518c0.244,3.251,5.336,3.275,5.09,0c-0.16-2.115-0.58-5.524,0.141-8.081
		c0.371,1.856,1.251,4.283,3.318,6.404c4.005,4.11-2.089,6.162,3.626,6.162h-2.419v1.954l0.035,0.017l1.014,21.224
		c0,1.222,0.995,2.216,2.217,2.216c1.223,0,2.217-0.994,2.217-2.229l-0.42-18.549c-1.323-0.492-3.196-1.607-4.399-2.362l4.843,2.309
		h0.651l1.19-0.532L26.484,54.99c0,1.222,0.994,2.216,2.216,2.216c1.225,0,2.218-0.994,2.217-2.191l1.018-22.025
		c-0.08,0.052-0.183,0.116-0.28,0.178v-1.44h-3.809c7.454,0,1.257-0.623,4.778-6.162c3.523-5.54,3.566-9.513,3.566-9.513
		c0-0.042-0.005-0.084-0.008-0.126l-0.023-0.263c3.913,0.24,8.957,0.702,10.783-3.176C49.143,7.809,44.987,1.136,40.114,0.188z"/>
</g>
<g>
</g>
<g>
</g>
<g>
</g>
<g>
</g>
<g>
</g>
<g>
</g>
<g>
</g>
<g>
</g>
<g>
</g>
<g>
</g>
<g>
</g>
<g>
</g>
<g>
</g>
<g>
</g>
<g>
</g>
</svg>
