<?xml version="1.0" encoding="iso-8859-1"?>
<!-- Generator: Adobe Illustrator 16.0.0, SVG Export Plug-In . SVG Version: 6.00 Build 0)  -->
<!DOCTYPE svg PUBLIC "-//W3C//DTD SVG 1.1//EN" "http://www.w3.org/Graphics/SVG/1.1/DTD/svg11.dtd">
<svg version="1.1" id="Capa_1" xmlns="http://www.w3.org/2000/svg" xmlns:xlink="http://www.w3.org/1999/xlink" x="0px" y="0px"
	 width="187.052px" height="187.053px" viewBox="0 0 187.052 187.053" style="enable-background:new 0 0 187.052 187.053;"
	 xml:space="preserve">
<g>
	<path d="M164.504,130.688c0.506,1.303,0.457,2.733-0.134,4.007l-10.145,21.555c-0.871,1.84-2.691,2.911-4.591,2.911
		c-0.725,0-1.456-0.146-2.162-0.476c-2.533-1.193-3.623-4.213-2.436-6.746l7.879-16.733L42.73,90.162l-18.843,64.085
		c-0.648,2.21-2.67,3.647-4.865,3.647c-0.472,0-0.953-0.079-1.434-0.207c-2.679-0.791-4.226-3.604-3.428-6.303l25.365-86.237
		c0.785-2.694,3.58-4.229,6.299-3.443c2.686,0.792,4.226,3.604,3.428,6.293L45.611,80.38l116.099,47.435
		C162.989,128.362,164,129.397,164.504,130.688z M185.202,57.588c-2.174-1.787-5.358-1.471-7.143,0.679l-17.811,21.607
		l-17.671-13.53c-1.096-0.818-2.484-1.184-3.849-0.974l-55.606,8.448L54.516,41.646c-1.653-1.866-4.421-2.259-6.516-0.91
		L2.344,69.909c-2.362,1.51-3.054,4.64-1.547,7.003c1.517,2.375,4.665,3.05,7.009,1.534l42.009-26.832l27.565,31.009
		c1.142,1.279,2.856,1.921,4.552,1.647l56.206-8.549l19.851,15.192c0.914,0.688,2.004,1.035,3.081,1.035
		c1.462,0,2.917-0.64,3.916-1.849l20.922-25.361C187.673,62.584,187.363,59.372,185.202,57.588z M159.78,63.406
		c9.81,0,17.762-7.938,17.762-17.759c0-9.8-7.94-17.756-17.762-17.756c-9.822,0-17.763,7.95-17.763,17.756
		C142.017,55.463,149.97,63.406,159.78,63.406z"/>
</g>
<g>
</g>
<g>
</g>
<g>
</g>
<g>
</g>
<g>
</g>
<g>
</g>
<g>
</g>
<g>
</g>
<g>
</g>
<g>
</g>
<g>
</g>
<g>
</g>
<g>
</g>
<g>
</g>
<g>
</g>
</svg>
