<?xml version="1.0" encoding="iso-8859-1"?>
<!-- Generator: Adobe Illustrator 18.1.1, SVG Export Plug-In . SVG Version: 6.00 Build 0)  -->
<svg version="1.1" id="Capa_1" xmlns="http://www.w3.org/2000/svg" xmlns:xlink="http://www.w3.org/1999/xlink" x="0px" y="0px"
	 viewBox="0 0 61.57 61.57" style="enable-background:new 0 0 61.57 61.57;" xml:space="preserve">
<g>
	<g>
		<path style="fill:#010002;" d="M42.573,26.281c-3.419-2.414-7.534-0.851-10.719,1.13c-0.229,0.142-0.455,0.287-0.682,0.431
			c-1.167-0.781-2.237-1.65-3.526-2.25c-1.932-0.901-4.075-1.149-6.111-0.444c-1.797,0.622-3.379,1.922-4.581,3.381
			c-0.992,1.204-1.634,2.613-1.796,4.172c-0.273,2.626,1.018,5.178,2.498,7.249c0.008,0.012,0.02,0.017,0.028,0.026
			c0.012,0.019,0.017,0.039,0.033,0.057c4.084,4.6,8.295,9.146,12.822,13.314c0.159,0.146,0.409,0.16,0.566,0
			c2.724-2.803,5.381-5.672,8.03-8.547c2.158-2.344,4.383-4.66,6.398-7.131c1.172-1.436,1.163-3.629,0.865-5.359
			C45.979,29.875,44.587,27.703,42.573,26.281z M45.529,35.884c-0.179,0.666-0.402,1.035-0.802,1.508
			c-2.086,2.478-4.314,4.842-6.508,7.222c-2.445,2.651-4.901,5.294-7.41,7.884c-4.401-4.081-8.511-8.512-12.495-12.997
			c-1.39-1.957-2.545-4.231-2.366-6.694c0.109-1.508,0.839-2.887,1.822-4.006c1.366-1.556,3.137-2.838,5.207-3.201
			c2.016-0.354,4.019,0.422,5.705,1.468c0.79,0.491,1.501,1.091,2.279,1.598c0.115,0.075,0.288,0.072,0.404,0
			c2.978-1.864,6.579-3.942,10.089-2.128c2.273,1.174,3.712,3.526,4.173,5.985C45.834,33.626,45.82,34.796,45.529,35.884z"/>
		<path style="fill:#010002;" d="M61.056,18.896c-0.858-1.589-2.681-2.329-4.056-3.393c-2.649-2.05-5.104-4.301-8.192-5.696
			c-1.877-0.848-3.871-1.345-5.918-1.531c-1.229-0.112-2.467-0.09-3.694,0.013c-0.987,0.083-2.175,0.102-3.062,0.598
			c-1.24,0.695-0.83,2.21-0.289,3.221c0.678,1.27,1.734,2.425,2.862,3.311c0.367,0.288,0.79,0.622,1.269,0.676
			c0.703,0.08,1.457,0.039,2.162,0.016c0.809-0.027,1.693-0.092,2.418-0.487c0.267-0.146,0.502-0.39,0.602-0.681
			c0.021-0.062,0.021-0.127,0.03-0.191c0.29,0.053,0.694,0.302,0.954,0.468c0.549,0.35,1.049,0.774,1.502,1.239
			c0.552,0.564,1.599,1.79,0.41,2.172c-0.273,0.088-0.554,0.155-0.834,0.222c-1.16,0.139-2.271,0.539-3.235,1.262
			c-0.786,0.427-1.535,0.922-2.22,1.497c-0.78,0.655-1.562,1.445-2.078,2.333c-0.05,0.086-0.057,0.168-0.046,0.246
			c0,0.156,0.083,0.303,0.286,0.342c2.305,0.445,4.492,2.042,5.881,3.881c0.687,0.91,1.207,1.937,1.584,3.011
			c0.166,0.469,0.267,0.967,0.756,1.203c0.855,0.416,1.938-0.144,2.691-0.541c2.598-1.375,4.883-3.453,7.057-5.406
			c1.121-1.007,2.408-1.955,3.084-3.333C61.677,21.933,61.822,20.315,61.056,18.896z M59.859,23.695
			c-0.022,0.033-0.101,0.14-0.133,0.186c-0.021,0.024-0.047,0.046-0.069,0.068c-0.221,0.213-0.441,0.424-0.665,0.635
			c-0.905,0.855-1.828,1.691-2.769,2.508c-1.174,1.022-2.379,2.016-3.642,2.929c-0.985,0.712-2.054,1.479-3.228,1.844
			c-0.336,0.104-0.689,0.14-0.868,0.042c-0.067-0.036-0.13-0.109-0.158-0.18c-0.209-0.514-0.358-1.049-0.58-1.559
			c-0.792-1.823-2.086-3.381-3.678-4.559c-0.988-0.731-2.183-1.366-3.399-1.701c0.41-0.567,0.922-1.076,1.434-1.535
			c1.455-1.307,3.235-2.171,5.109-2.687c1.907-0.314,3.844,0.182,5.535,1.094c0.454,0.245,0.857-0.446,0.404-0.691
			c-1.198-0.647-2.596-1.102-4.011-1.246c0.083-0.103,0.155-0.215,0.21-0.348c0.197-0.477-0.029-1.05-0.26-1.468
			c-0.607-1.1-1.723-2.012-2.787-2.647c-0.364-0.218-0.826-0.474-1.267-0.452c-0.21,0.01-0.407,0.103-0.524,0.284
			c-0.109,0.173-0.041,0.406-0.166,0.56c-0.445,0.541-1.59,0.511-2.213,0.536c-0.416,0.017-0.834,0.013-1.252,0.005
			c-0.172-0.003-0.345-0.008-0.517-0.012c-0.071-0.002-0.144-0.003-0.214-0.004c-0.017,0-0.106-0.007-0.131-0.006
			c-0.364-0.079-0.795-0.465-1.103-0.728c-0.561-0.481-1.071-1.025-1.536-1.598c-0.529-0.65-1.854-2.34-1.078-3.207
			c0.188-0.21,0.467-0.305,0.731-0.376c0.642-0.171,1.336-0.216,1.995-0.28c1.234-0.12,2.48-0.133,3.717-0.038
			c2.061,0.157,4.087,0.7,5.959,1.574c3.034,1.416,5.444,3.699,8.079,5.703c1.415,1.076,3.308,1.813,3.865,3.654
			C61.035,21.261,60.559,22.634,59.859,23.695z"/>
		<path style="fill:#010002;" d="M21.644,24.532c0.171-0.033,0.254-0.143,0.279-0.268c0.002-0.005,0.003-0.011,0.005-0.017
			c0.002-0.016,0.005-0.032,0.005-0.048c0.013-0.079,0.006-0.165-0.046-0.254c-0.442-0.747-1.08-1.406-1.713-1.989
			c-1.142-1.05-2.474-1.865-3.9-2.462c-0.003-0.001-0.004-0.003-0.006-0.004c-0.011-0.005-0.022-0.009-0.033-0.014
			c-0.021-0.008-0.042-0.018-0.062-0.027c-0.982-0.444-2.028-0.801-3.094-0.991c-0.11-0.076-0.201-0.164-0.245-0.275
			c-0.15-0.383,0.179-0.861,0.413-1.18c0.667-0.91,1.767-1.764,2.819-2.174c0.12-0.047,0.219-0.072,0.31-0.087
			c0.007,0.046,0.008,0.094,0.019,0.14c0.167,0.708,1.037,0.97,1.652,1.09c0.865,0.168,1.762,0.161,2.639,0.145
			c0.53-0.01,1.016,0.029,1.495-0.222c1.18-0.619,2.179-1.768,2.959-2.82c0.699-0.943,1.56-2.421,0.867-3.585
			c-0.391-0.656-1.175-0.864-1.871-1c-1.246-0.243-2.516-0.373-3.785-0.381c-2.167-0.015-4.325,0.399-6.343,1.183
			c-3.418,1.328-6.179,3.69-9.033,5.916c-0.583,0.455-1.18,0.895-1.802,1.296c-0.905,0.583-1.754,1.121-2.405,2
			c-0.997,1.346-0.942,3.1-0.298,4.578c0.628,1.441,1.824,2.349,2.967,3.385c2.184,1.979,4.466,4.014,7.038,5.479
			c0.769,0.438,1.833,1.025,2.753,0.762c0.401-0.115,0.66-0.428,0.798-0.808c0.396-1.089,0.803-2.109,1.45-3.079
			C16.838,26.777,19.189,25.006,21.644,24.532z M13.822,30.169c-0.222,0.494-0.399,1.004-0.565,1.519
			c-0.034,0.104-0.099,0.175-0.172,0.219c-0.174,0.106-0.537,0.056-0.869-0.042c-0.518-0.152-1.001-0.417-1.466-0.686
			c-2.551-1.472-4.806-3.513-6.975-5.487c-0.628-0.572-1.25-1.152-1.861-1.743c-0.028-0.027-0.057-0.055-0.085-0.082
			c0.122,0.119-0.074-0.106-0.117-0.171c-0.3-0.447-0.537-0.934-0.705-1.445c-0.24-0.733-0.292-1.505-0.088-2.253
			c0.295-1.083,1.174-1.877,2.09-2.455c1.318-0.831,2.538-1.765,3.755-2.738c2.967-2.372,6.056-4.586,9.815-5.476
			c2.354-0.557,4.811-0.524,7.182-0.097c0.597,0.107,1.457,0.214,1.662,0.901c0.161,0.54-0.143,1.17-0.391,1.634
			c-0.659,1.231-1.717,2.379-2.854,3.187c-0.485,0.345-0.593,0.342-1.134,0.355c-0.858,0.02-1.729,0.045-2.581-0.075
			c-0.355-0.05-0.723-0.126-1.04-0.3c-0.261-0.143-0.237-0.301-0.294-0.553c-0.104-0.458-0.625-0.492-0.995-0.411
			c-1.108,0.242-2.192,1.151-2.973,1.927c-0.592,0.588-1.349,1.559-1.105,2.432c-0.937-0.062-1.879,0.026-2.797,0.333
			c-0.863,0.29-1.821,0.803-2.393,1.539c-0.314,0.403,0.248,0.973,0.564,0.566c0.46-0.593,1.193-1.012,1.879-1.275
			c1.147-0.441,2.363-0.471,3.555-0.269c0.462,0.225,1.014,0.311,1.482,0.438c1.162,0.317,2.271,0.796,3.306,1.41
			c1.185,0.703,2.395,1.675,3.222,2.832c-2.067,0.562-4.014,1.962-5.36,3.552C14.821,28.274,14.26,29.191,13.822,30.169z"/>
		<path style="fill:#010002;" d="M42.205,33.807c-0.17,0.175-0.412,0.3-0.681,0.391c-0.035-0.179-0.086-0.353-0.137-0.527
			c0.221-0.09,0.428-0.223,0.617-0.416c0.18-0.185-0.102-0.468-0.283-0.283c-0.138,0.141-0.291,0.234-0.453,0.308
			c-0.119-0.323-0.262-0.64-0.444-0.938c-0.134-0.22-0.479-0.019-0.345,0.201c0.169,0.276,0.301,0.565,0.412,0.862
			c-0.18,0.036-0.367,0.05-0.557,0.052c-0.094-0.285-0.206-0.565-0.346-0.837c-0.119-0.229-0.464-0.026-0.346,0.202
			c0.104,0.204,0.188,0.414,0.265,0.626c-0.24-0.012-0.479-0.029-0.708-0.032c-0.257-0.003-0.256,0.397,0.001,0.4
			c0.273,0.003,0.551,0.02,0.826,0.028c0.053,0.188,0.102,0.379,0.134,0.572c-0.315,0.012-0.543,0-0.543-0.001
			c-1-0.001-1,0.399,0,0.4c0,0.001,0.247,0.009,0.592-0.013c0.038,0.352,0.058,0.705,0.042,1.062c-0.011,0.258,0.39,0.257,0.4,0
			c0.016-0.369-0.006-0.736-0.045-1.1c0.188-0.022,0.384-0.053,0.583-0.099c0.051,0.396,0.078,0.795,0.061,1.197
			c-0.011,0.258,0.389,0.257,0.4,0c0.019-0.438-0.014-0.876-0.074-1.309c0.313-0.106,0.603-0.254,0.807-0.465
			C42.563,33.905,42.386,33.622,42.205,33.807z M40.557,34.388c-0.03-0.185-0.073-0.365-0.119-0.546
			c0.193-0.006,0.383-0.021,0.567-0.06c0.05,0.171,0.098,0.342,0.131,0.518C40.939,34.343,40.745,34.37,40.557,34.388z"/>
	</g>
</g>
<g>
</g>
<g>
</g>
<g>
</g>
<g>
</g>
<g>
</g>
<g>
</g>
<g>
</g>
<g>
</g>
<g>
</g>
<g>
</g>
<g>
</g>
<g>
</g>
<g>
</g>
<g>
</g>
<g>
</g>
</svg>
