<?xml version="1.0" encoding="iso-8859-1"?>
<!-- Generator: Adobe Illustrator 18.1.1, SVG Export Plug-In . SVG Version: 6.00 Build 0)  -->
<svg version="1.1" id="Capa_1" xmlns="http://www.w3.org/2000/svg" xmlns:xlink="http://www.w3.org/1999/xlink" x="0px" y="0px"
	 viewBox="0 0 49.192 49.192" style="enable-background:new 0 0 49.192 49.192;" xml:space="preserve">
<g>
	<path style="fill:#1D1C1A;" d="M46.076,18.354C43.214,15.396,48.169,7.543,37.16,3.02c-1.193-0.49-3.379-0.282-4.75-1.083
		c-4.417-2.582-11.209-2.583-15.625-0.001c-1.371,0.801-3.557,0.595-4.75,1.085C1.026,7.545,5.981,15.397,3.118,18.355
		c-2.5,2.583-3.083,6.584-2.5,8.918s8.231,5.116,9.109,3.39c0.878-1.726,1.558-6.243,1.558-6.243s1.102,5.346,1.312,9.288
		c0.228,4.237-1.396,5.565,0.824,9.585c0,0,2.446,5.899,8.946,5.899h4.459c6.5,0,8.946-5.899,8.946-5.899
		c2.22-4.02,0.597-4.929,0.824-9.167c0.211-3.941,1.312-9.497,1.312-9.497s0.679,4.412,1.558,6.139
		c0.877,1.727,8.525-1.108,9.108-3.442S48.576,20.937,46.076,18.354z M17.492,29.234c-4.726,0-6.441-9.997-4.764-9.595
		c3.308,0.793,6.349-9.856,7.716-12.211c0,0,2.348,4.361,2.771,9.538S17.642,29.234,17.492,29.234z M31.845,29.234
		c-0.15,0-6.146-7.091-5.723-12.268s2.771-9.538,2.771-9.538c1.367,2.354,4.408,13.004,7.716,12.211
		C38.285,19.237,36.571,29.234,31.845,29.234z"/>
</g>
<g>
</g>
<g>
</g>
<g>
</g>
<g>
</g>
<g>
</g>
<g>
</g>
<g>
</g>
<g>
</g>
<g>
</g>
<g>
</g>
<g>
</g>
<g>
</g>
<g>
</g>
<g>
</g>
<g>
</g>
</svg>
