<?xml version="1.0" encoding="iso-8859-1"?>
<!-- Generator: Adobe Illustrator 16.0.0, SVG Export Plug-In . SVG Version: 6.00 Build 0)  -->
<!DOCTYPE svg PUBLIC "-//W3C//DTD SVG 1.1//EN" "http://www.w3.org/Graphics/SVG/1.1/DTD/svg11.dtd">
<svg version="1.1" id="Capa_1" xmlns="http://www.w3.org/2000/svg" xmlns:xlink="http://www.w3.org/1999/xlink" x="0px" y="0px"
	 width="523.824px" height="523.825px" viewBox="0 0 523.824 523.825" style="enable-background:new 0 0 523.824 523.825;"
	 xml:space="preserve">
<g>
	<g>
		<path d="M35.496,21.807c-6.369,0-11.522,5.833-11.522,13.034c0,21.793,0,65.455,0,87.238c0,7.201,5.154,13.034,11.522,13.034
			c6.35,0,11.514-5.833,11.514-13.034c0-8.539,0-20.473,0-33.115c0.879,0,8.807,0,21.84,0c0.976,3.92,2.974,7.631,6.111,10.633
			l132.526,127.134v75.955h-72.904c-15.721,0-28.487,12.756-28.487,28.477v142.357c0,15.73,12.756,28.486,28.487,28.486
			c15.721,0,28.458-12.756,28.458-28.486v-113.87h97.069l129.228,133.674c5.585,5.775,13.015,8.692,20.474,8.692
			c7.134,0,14.258-2.658,19.784-8.014c11.312-10.93,11.609-28.945,0.68-40.258L300.654,319.66v-86.043
			c1.903-0.995,3.739-2.199,5.346-3.796L445.201,91.413c0.765-0.765,1.377-1.606,2.008-2.448c16.199,0,26.766,0,29.31,0
			c0,12.642,0,24.566,0,33.125c0,7.191,5.154,13.024,11.513,13.024c6.359,0,11.523-5.833,11.523-13.034c0-21.793,0-65.455,0-87.238
			c0-7.201-5.164-13.034-11.523-13.034c-6.358,0-11.513,5.833-11.513,13.034c0,8.549,0,20.473,0,33.115c-2.382,0-11.791,0-26.24,0
			c-1.07-2.859-2.706-5.556-5.001-7.86c-8.625-8.673-22.653-8.702-31.308-0.086l-7.994,7.946c-83.901,0-221.792,0-300.033,0
			l-0.335-0.315c-8.692-8.339-22.415-8.138-30.906,0.315c-16.524,0-26.699,0-27.703,0c0-12.642,0-24.566,0-33.125
			C47.009,27.631,41.845,21.807,35.496,21.807z M218.809,88.965c-6.981,8.778-11.322,19.737-11.322,31.824
			c0,28.411,23.017,51.408,51.398,51.408c28.411,0,51.417-22.998,51.417-51.408c0-12.087-4.341-23.055-11.322-31.824
			c30.505,0,59.967,0,85.872,0l-98.829,98.264h-55.749L127.851,88.965C154.635,88.965,186.01,88.965,218.809,88.965z"/>
		<path d="M515.142,117.719c4.8,0,8.683-3.882,8.683-8.683c0-15.099,0-46.034-0.01-61.133c0-4.81-3.883-8.692-8.683-8.692
			c-0.363,0-0.736,0-1.119,0c-4.791,0-8.683,3.873-8.683,8.683c0,15.099,0,46.043,0,61.143c0,4.81,3.892,8.692,8.683,8.692
			C514.396,117.719,514.769,117.719,515.142,117.719z"/>
		<path d="M9.811,117.719c4.8,0,8.683-3.882,8.683-8.683c0-15.099,0-46.034,0-61.133c0-4.81-3.882-8.692-8.683-8.692
			c-0.373,0-0.746,0-1.138,0C3.892,39.211,0,43.084,0,47.894c0,15.099,0,46.043,0,61.143c0,4.81,3.892,8.692,8.683,8.692
			C9.065,117.719,9.438,117.719,9.811,117.719z"/>
	</g>
</g>
<g>
</g>
<g>
</g>
<g>
</g>
<g>
</g>
<g>
</g>
<g>
</g>
<g>
</g>
<g>
</g>
<g>
</g>
<g>
</g>
<g>
</g>
<g>
</g>
<g>
</g>
<g>
</g>
<g>
</g>
</svg>
