<?xml version="1.0" encoding="iso-8859-1"?>
<!-- Generator: Adobe Illustrator 16.0.0, SVG Export Plug-In . SVG Version: 6.00 Build 0)  -->
<!DOCTYPE svg PUBLIC "-//W3C//DTD SVG 1.1//EN" "http://www.w3.org/Graphics/SVG/1.1/DTD/svg11.dtd">
<svg version="1.1" id="Capa_1" xmlns="http://www.w3.org/2000/svg" xmlns:xlink="http://www.w3.org/1999/xlink" x="0px" y="0px"
	 width="524.016px" height="524.016px" viewBox="0 0 524.016 524.016" style="enable-background:new 0 0 524.016 524.016;"
	 xml:space="preserve">
<g>
	<g>
		<path d="M514.205,168.883c0.381,0,0.754,0,1.127,0c4.801,0,8.684-3.882,8.684-8.683c0-15.099,0-46.043-0.01-61.143
			c0-4.81-3.883-8.692-8.684-8.692c-0.363,0-0.736,0-1.117,0c-4.791,0-8.684,3.873-8.684,8.683c0,15.099,0,46.034,0,61.133
			C505.521,165.001,509.414,168.883,514.205,168.883z"/>
		<path d="M9.821,90.375c-0.383,0-0.755,0-1.138,0C3.892,90.375,0,94.248,0,99.058c0,15.099,0,46.034,0,61.133
			c0,4.81,3.892,8.692,8.683,8.692c0.383,0,0.755,0,1.128,0c4.8,0,8.683-3.882,8.683-8.683c0-15.099,0-46.043,0-61.143
			C18.503,94.258,14.611,90.375,9.821,90.375z"/>
		<path d="M26.498,285.985c5.69,8.932,15.539,14.334,26.125,14.334h79.512l61.391,140.129c2.821,6.445,9.18,10.596,16.208,10.596
			h113.316c7.516,0,14.219-4.752,16.695-11.857l48.578-138.877h84.617c10.777,0,20.779-5.594,26.412-14.783
			s6.082-20.645,1.195-30.246l-58.656-115.152c19.316,0,31.996,0,34.826,0c0,12.642,0,24.566,0,33.125
			c0,7.191,5.154,13.024,11.514,13.024s11.523-5.833,11.523-13.034c0-21.792,0-65.455,0-87.238c0-7.201-5.164-13.034-11.523-13.034
			s-11.514,5.833-11.514,13.034c0,8.549,0,20.473,0,33.115c-3.328,0-20.34,0-45.805,0c-8.375-13.588-25.809-18.781-40.305-11.427
			c-5.27,2.687-9.354,6.732-12.24,11.427c-19.211,0-40.182,0-61.945,0c-11.391-19.517-32.504-32.666-56.726-32.666
			c-24.231,0-45.345,13.148-56.734,32.666c-21.659,0-42.438,0-61.381,0c-3.07-5.011-7.564-9.218-13.292-11.896
			c-14.392-6.704-31.193-1.291-39.331,11.896c-24.738,0-40.478,0-41.75,0c0-12.642,0-24.566,0-33.125
			c0-7.201-5.154-13.024-11.523-13.024s-11.522,5.833-11.522,13.034c0,21.793,0.009,65.455,0.009,87.239
			c0,7.2,5.154,13.034,11.513,13.034c6.359,0,11.523-5.833,11.523-13.034c0-8.549,0-20.474,0-33.115c1.081,0,12.756,0,31.547,0
			l-54.2,116.118C20.081,265.837,20.808,277.054,26.498,285.985z M195.132,140.139c-0.727,3.901-1.147,7.908-1.147,12.02
			c0,36.299,29.424,65.704,65.713,65.704c36.28,0,65.694-29.405,65.694-65.704c0-4.112-0.43-8.119-1.146-12.02
			c17.432,0,34.242,0,49.963,0c0.498,3.136,1.34,6.244,2.85,9.228l45.355,89.017H101.257l41.999-89.973
			c1.252-2.687,1.951-5.47,2.391-8.262C161.157,140.139,177.824,140.139,195.132,140.139z"/>
	</g>
</g>
<g>
</g>
<g>
</g>
<g>
</g>
<g>
</g>
<g>
</g>
<g>
</g>
<g>
</g>
<g>
</g>
<g>
</g>
<g>
</g>
<g>
</g>
<g>
</g>
<g>
</g>
<g>
</g>
<g>
</g>
</svg>
