<?xml version="1.0" encoding="iso-8859-1"?>
<!-- Generator: Adobe Illustrator 18.1.1, SVG Export Plug-In . SVG Version: 6.00 Build 0)  -->
<svg version="1.1" id="Capa_1" xmlns="http://www.w3.org/2000/svg" xmlns:xlink="http://www.w3.org/1999/xlink" x="0px" y="0px"
	 viewBox="0 0 612 792" style="enable-background:new 0 0 612 792;" xml:space="preserve">
<path style="fill:#030104;" d="M593.487,110.542h-23.458c-10.22,0-18.539,8.318-18.539,18.564v30.128
	c0,0-100.453-28.556-247.721-28.556S60.51,159.234,60.51,159.234v-30.128c0-10.246-8.318-18.564-18.539-18.564H18.539
	C8.293,110.542,0,118.86,0,129.106v102.685c0,10.246,8.318,18.539,18.539,18.539h23.433c10.22,0,18.539-8.293,18.539-18.539v-40.881
	c0,0,9.782-1.973,26.052-4.88c0.06,0.061,0.11,0.128,0.171,0.188c0.101,0.076,0.101,0.127,0.152,0.127L245.13,333.996l2.084,128.778
	l-55.945,191.244c0,15.216,12.249,27.44,27.44,27.44c15.115,0,27.415-12.224,27.415-27.44l67.059-188.327l61.646,95.761
	l-45.04,92.819l0.152,0.203c0.203,14.836,12.325,26.984,27.313,26.984c15.064,0,27.263-12.224,27.263-27.288l45.674-95.153
	l-60.662-94.569l-2.755-132.396l156.186-145.707c0.025,0,0.051-0.051,0.152-0.127c0.144-0.143,0.266-0.299,0.405-0.445
	c17.415,3.047,27.974,5.137,27.974,5.137v40.881c0,10.246,8.318,18.539,18.539,18.539h23.458c10.22,0,18.513-8.293,18.513-18.539
	V129.106C612,118.86,603.707,110.542,593.487,110.542z M375.539,262.705l-0.011,0.051h-43.691
	c14.96-8.151,25.113-24.015,25.113-42.251c0-26.556-21.528-48.084-48.084-48.084s-48.083,21.528-48.083,48.084
	c0,18.236,10.152,34.1,25.113,42.251h-51.553l-0.011-0.051l-96.27-85.167c49.081-7.428,113.13-15.184,166.621-15.184
	c53.206,0,117.588,7.678,167.256,15.071L375.539,262.705z"/>
</svg>
